normalP112_grf.mot
version=1
nRows=12
nColumns=19
inDegrees=yes
endheader
time	1_ground_force_vx	1_ground_force_vy	1_ground_force_vz	1_ground_force_px	1_ground_force_py	1_ground_force_pz	1_ground_torque_x	1_ground_torque_y	1_ground_torque_z	2_ground_force_vx	2_ground_force_vy	2_ground_force_vz	2_ground_force_px	2_ground_force_py	2_ground_force_pz	2_ground_torque_x	2_ground_torque_y	2_ground_torque_z
            1.620000	            3.379366	          501.640330	           32.585276	            0.322926	            0.003654	           -0.349019	           -0.014946	           -2.218609	           -0.144115	            0.002412	            0.022549	           -0.022397	            0.755675	            0.001467	           -0.199486	           -0.163003	           -0.000413	            0.053333
            1.621000	            3.902883	          503.234246	           32.763245	            0.322608	            0.003655	           -0.349102	           -0.017338	           -2.235556	           -0.145547	            0.002891	            0.343882	           -0.012961	            0.755675	            0.001467	           -0.199486	           -0.028018	            0.000529	           -0.071391
            1.622000	            4.425537	          504.428215	           32.900868	            0.322595	            0.003655	           -0.349098	           -0.019548	           -2.228104	           -0.145326	           -0.020474	            0.183777	            0.016808	            0.755675	            0.001467	           -0.199486	            0.005001	            0.001640	            0.012321
            1.623000	            4.909124	          505.222641	           33.059198	            0.322481	            0.003656	           -0.349342	           -0.021836	           -2.247269	           -0.147050	            0.017992	            0.183998	           -0.029200	            0.755675	            0.001467	           -0.199486	           -0.061706	            0.007243	           -0.112619
            1.624000	            5.409825	          506.815644	           33.175853	            0.322898	            0.003654	           -0.349025	           -0.023969	           -2.245527	           -0.146991	           -0.012856	            0.184013	            0.024494	            0.755675	            0.001467	           -0.199486	           -0.028252	            0.008462	           -0.112296
            1.625000	            5.908574	          507.530565	           33.333763	            0.322667	            0.003655	           -0.349251	           -0.026517	           -2.277773	           -0.149600	           -0.020432	            0.263246	            0.024866	            0.755675	            0.001467	           -0.199486	           -0.011868	            0.014647	            0.074560
            1.626000	            6.476927	          508.644513	           33.524685	            0.322779	            0.003654	           -0.349098	           -0.028892	           -2.268965	           -0.149547	            0.009951	            0.023308	            0.000449	            0.755675	            0.001467	           -0.199486	           -0.028809	           -0.001127	            0.095239
            1.627000	            6.968637	          509.599841	           33.645575	            0.322578	            0.003656	           -0.349373	           -0.031423	           -2.297872	           -0.151714	           -0.035897	            0.104383	           -0.014499	            0.755675	            0.001467	           -0.199486	           -0.011451	            0.014337	           -0.091581
            1.628000	            7.461469	          511.190905	           33.838803	            0.322670	            0.003656	           -0.349323	           -0.033490	           -2.294397	           -0.151880	           -0.043356	            0.264336	            0.001545	            0.755675	            0.001467	           -0.199486	            0.055427	           -0.000612	           -0.008307
            1.629000	            7.991597	          512.305324	           33.983611	            0.322622	            0.003657	           -0.349433	           -0.035906	           -2.301741	           -0.152685	           -0.027833	            0.423391	            0.025645	            0.755675	            0.001467	           -0.199486	            0.021745	            0.004987	            0.074560
            1.630000	            8.474859	          513.022171	           34.172116	            0.322552	            0.003655	           -0.349197	           -0.038374	           -2.322984	           -0.154733	           -0.012566	            0.344549	            0.002152	            0.755675	            0.001467	           -0.199486	            0.038985	            0.007221	           -0.112215
            1.631000	            8.989170	          513.895874	           34.323318	            0.322716	            0.003657	           -0.349582	           -0.040513	           -2.316074	           -0.154692	           -0.019078	            0.983275	           -0.032813	            0.755675	            0.001467	           -0.199486	            0.038436	           -0.002380	            0.095570
